<?xml version="1.0" encoding="utf-8"?>
<!-- Generator: Adobe Illustrator 19.1.0, SVG Export Plug-In . SVG Version: 6.00 Build 0)  -->
<svg version="1.1" id="Livello_1" xmlns="http://www.w3.org/2000/svg" xmlns:xlink="http://www.w3.org/1999/xlink" x="0px" y="0px"
	 viewBox="-261 552.2 318.9 87.3" style="enable-background:new -261 552.2 318.9 87.3;" xml:space="preserve">
<g>
	<path d="M-68.9,603.7c0,0-7.1,0-8.9,0c0-1.4,0-4.6,0-6.1c1.8,0,7.9,0,7.9,0c0.6,0,1.1-0.5,1.1-1.1V594c0-0.6-0.5-1.1-1.1-1.1
		c0,0-6.1,0-7.9,0c0-1.3,0-3.7,0-5c1.8,0,8.4,0,8.4,0c0.6,0,1.1-0.5,1.1-1.1v-2.5c0-0.6-0.5-1.1-1.1-1.1H-82c-0.6,0-1.1,0.5-1.1,1.1
		v23.2c0,0.6,0.5,1.1,1.1,1.1h13.1c0.6,0,1.1-0.5,1.1-1.1v-2.5C-67.8,604.2-68.3,603.7-68.9,603.7z"/>
	<path d="M-96,585c-1.6-1.5-4.1-2.2-7.3-2.2c-2.1,0-4.1,0.2-5.9,0.5c-0.6,0.1-1,0.6-1,1.1v23c0,0.6,0.5,1.1,1.1,1.1h3
		c0.6,0,1.1-0.5,1.1-1.1c0,0,0-6,0-8c0.4,0,0.8,0,1.3,0c3.3,0,6.2-1,7.9-2.9c1.4-1.4,2.1-3.4,2.1-5.8C-93.6,588.4-94.5,586.4-96,585
		z M-98.9,590.9c0,1.2-0.4,2.2-1.1,2.8c-0.8,0.7-2,1-3.5,1c-0.5,0-1,0-1.3-0.1c0-1.4,0-5.7,0-7.1c0.4,0,1-0.1,1.7-0.1
		c1.4,0,2.5,0.3,3.3,0.9C-99.3,588.9-98.9,589.7-98.9,590.9z"/>
	<path d="M-96,585C-96,585-96,585-96,585C-96,585-96,585-96,585L-96,585z"/>
	<path d="M-127.3,593.1c-1.6-0.6-2.6-1.1-3.1-1.7c-0.5-0.5-0.7-1-0.7-1.7c0-0.6,0.2-1.1,0.6-1.5c0.6-0.5,1.5-0.8,2.6-0.8
		c1.7,0,3.1,0.5,3.9,1c0.2,0.1,0.4,0.1,0.6,0.1c0.1,0,0.3,0,0.4-0.1c0.3-0.1,0.6-0.4,0.7-0.7l0.8-2.4c0-0.1,0.1-0.2,0.1-0.4
		c0-0.4-0.2-0.8-0.6-1c-0.8-0.5-2.7-1.3-5.7-1.3c-1.2,0-2.4,0.2-3.4,0.5c-1,0.4-2,0.9-2.8,1.5c-1.6,1.4-2.5,3.3-2.5,5.4
		c0,1.9,0.7,3.5,2,4.8c1.1,1.1,2.7,2.1,4.9,2.8l0,0c3.1,1.2,3.6,2.2,3.6,3.5c0,0.8-0.3,1.5-0.9,2c-0.6,0.5-1.6,0.8-2.8,0.8
		c-1.6,0-3.4-0.5-4.8-1.3c-0.2-0.1-0.4-0.2-0.6-0.2c-0.1,0-0.3,0-0.4,0.1c-0.3,0.1-0.6,0.4-0.7,0.7l-0.8,2.5c0,0.1,0,0.2,0,0.3
		c0,0.4,0.2,0.7,0.5,1c1.5,1,4.2,1.7,6.6,1.7c2.9,0,5.2-0.8,6.9-2.3c1.5-1.4,2.4-3.4,2.4-5.5c0-2-0.6-3.6-1.8-4.9
		C-123.5,594.9-125.1,594-127.3,593.1z"/>
	<polygon points="-95.7,596.5 -95.7,596.5 -95.7,596.5 	"/>
	<path d="M6.6,583h-17.2c-0.6,0-1.1,0.5-1.1,1.1v2.6c0,0.6,0.5,1.1,1.1,1.1c0,0,4.3,0,5.9,0c0,2,0,19.5,0,19.5
		c0,0.6,0.5,1.1,1.1,1.1h3c0.6,0,1.1-0.5,1.1-1.1c0,0,0-17.5,0-19.5c1.6,0,6,0,6,0c0.6,0,1.1-0.5,1.1-1.1v-2.6
		C7.8,583.5,7.2,583,6.6,583z"/>
	<path d="M-21.7,583h-3c-0.6,0-1.1,0.5-1.1,1.1v23.2c0,0.6,0.5,1.1,1.1,1.1h3c0.6,0,1.1-0.5,1.1-1.1v-23.2
		C-20.6,583.5-21.1,583-21.7,583z"/>
	<polygon points="-39.8,605 -39.8,605 -39.9,605 	"/>
	<path d="M35.7,583.6c-0.2-0.4-0.6-0.6-1-0.6h-3.4c-0.4,0-0.8,0.2-1,0.6L27,590c0,0,0,0,0,0l-0.3,0.6c-0.4,0.7-0.7,1.4-1,2
		c-0.4-0.8-0.8-1.7-1.3-2.7l-3.3-6.4c-0.2-0.4-0.6-0.6-1-0.6h-3.4c-0.4,0-0.8,0.2-1,0.6c-0.1,0.2-0.2,0.4-0.2,0.6
		c0,0.2,0,0.4,0.1,0.6c0,0,6.9,12.6,7.2,13.1c0,0.6,0,9.6,0,9.6c0,0.6,0.5,1.1,1.1,1.1h3c0.6,0,1.1-0.5,1.1-1.1c0,0,0-9,0-9.6
		c0.3-0.5,7.6-13.1,7.6-13.1c0.1-0.2,0.2-0.4,0.2-0.6C35.9,583.9,35.8,583.7,35.7,583.6z"/>
	<path d="M-37.1,589.9c-0.6-1.5-1.5-2.8-2.7-3.9c-1.1-1.1-2.6-1.9-4.3-2.4c-1.7-0.5-3.7-0.8-5.9-0.8c-2.2,0-4.4,0.2-6.5,0.5
		c-0.6,0.1-1,0.6-1,1.1v22.8c0,0.6,0.4,1.1,1,1.1c1.7,0.2,3.5,0.3,5.6,0.3c2.4,0,4.5-0.3,6.4-0.9c1.9-0.6,3.5-1.6,4.7-2.8
		c2.4-2.4,3.7-5.8,3.7-9.8C-36.2,593.2-36.5,591.4-37.1,589.9z M-41.6,595.2L-41.6,595.2c0,5.8-3,8.8-8.7,8.8c-0.5,0-1.3,0-1.9,0
		c0-1.7,0-14.7,0-16.3c0.6-0.1,1.4-0.1,2.4-0.1C-44.5,587.5-41.6,590.1-41.6,595.2z"/>
	<polygon points="-39.8,586 -39.8,586 -39.8,586 	"/>
</g>
<path d="M-179.7,576.3l-21.8-19.9c-3.8-3.5-9.1-4.6-14-3.1l-28.1,9c-4.9,1.6-8.6,5.6-9.7,10.6l-6.3,28.9c-1.1,5,0.6,10.2,4.4,13.7
	l21.8,19.9c2.7,2.4,6.1,3.7,9.7,3.7c1.5,0,2.9-0.2,4.4-0.7l28.1-9c4.9-1.6,8.6-5.6,9.7-10.6l6.3-28.9
	C-174.2,585-175.9,579.8-179.7,576.3z M-205.8,594.6l-15.4,20.2l0,0c-0.1,0.2-0.4,0.3-0.6,0.3c-0.4,0-0.8-0.4-0.8-0.8
	c0-0.1,0-0.1,0-0.2l0,0l3.2-14.8l-8.7,0c-0.7,0-1.2-0.6-1.2-1.3c0-0.3,0.1-0.6,0.3-0.8l0,0l15.4-20.2l0,0c0.1-0.2,0.4-0.3,0.6-0.3
	c0.4,0,0.8,0.4,0.8,0.8c0,0.1,0,0.1,0,0.2l0,0l-3.2,14.8l8.7,0c0.7,0,1.2,0.6,1.2,1.3C-205.6,594.1-205.7,594.4-205.8,594.6
	L-205.8,594.6z"/>
</svg>
